# xmcd CD database file
#
# Track frame offsets:
#	150
#	21180
#	64215
#	98257
#	115077
#	136772
#	160272
#	192850
#	225270
#	251640
#
# Disc length: 3585 seconds
#
# Revision: 0
# Processed by: cddbd v1.4PL0 Copyright (c) Steve Scherf et al.
# Submitted via: CDex 1.50beta9
#
DISCID=720dff0a
DTITLE=Peter Willmot - Moon Tears
DYEAR=1998
DGENRE=New Age
TTITLE0=Waterfall Magic
TTITLE1=Indian Ocean
TTITLE2=Mayotte Lagoon
TTITLE3=Moonlight Coral
TTITLE4=Moon Tears
TTITLE5=The Elders
TTITLE6=Crocodile Cove
TTITLE7=Antelope Morning
TTITLE8=Saffron Souk
TTITLE9=Shanzu Beach
EXTD=YEAR: 1998
EXTT0=
EXTT1=
EXTT2=
EXTT3=
EXTT4=
EXTT5=
EXTT6=
EXTT7=
EXTT8=
EXTT9=
PLAYORDER=
